<svg xmlns:xlink="http://www.w3.org/1999/xlink" xmlns="http://www.w3.org/2000/svg" version="1.1" viewBox="0 0 1024 1024" height="1024px" width="1024px">
    <title>购物车空空如也</title>
    <defs>
        <linearGradient id="linearGradient-1" y2="100%" x2="50%" y1="0%" x1="50%">
            <stop offset="0%" stop-color="#F9AB21"></stop>
            <stop offset="100%" stop-color="#FEE127"></stop>
        </linearGradient>
        <linearGradient id="linearGradient-2" y2="100%" x2="50%" y1="0%" x1="50%">
            <stop offset="0%" stop-color="#F9AB21"></stop>
            <stop offset="100%" stop-opacity="0" stop-color="#FFF29D"></stop>
        </linearGradient>
        <linearGradient id="linearGradient-3" y2="100%" x2="50%" y1="0%" x1="50%">
            <stop offset="0%" stop-color="#F9AB21"></stop>
            <stop offset="100%" stop-opacity="0" stop-color="#FFF29D"></stop>
        </linearGradient>
        <linearGradient id="linearGradient-4" y2="100%" x2="50%" y1="0%" x1="50%">
            <stop offset="0%" stop-color="#FFF29D"></stop>
            <stop offset="100%" stop-color="#F9AB21"></stop>
        </linearGradient>
        <linearGradient id="linearGradient-5" y2="100%" x2="50%" y1="0%" x1="50%">
            <stop offset="0%" stop-color="#FFF29D"></stop>
            <stop offset="100%" stop-color="#F9AB21"></stop>
        </linearGradient>
        <linearGradient id="linearGradient-6" y2="100%" x2="50%" y1="0%" x1="50%">
            <stop offset="0%" stop-color="#FFF29D"></stop>
            <stop offset="100%" stop-color="#F9AB21"></stop>
        </linearGradient>
        <linearGradient id="linearGradient-7" y2="100%" x2="50%" y1="0%" x1="50%">
            <stop offset="0%" stop-color="#FFF29D"></stop>
            <stop offset="100%" stop-color="#F9AB21"></stop>
        </linearGradient>
        <linearGradient id="linearGradient-8" y2="100%" x2="50%" y1="0%" x1="50%">
            <stop offset="0%" stop-color="#FFF29D"></stop>
            <stop offset="100%" stop-color="#F9AB21"></stop>
        </linearGradient>
        <linearGradient id="linearGradient-9" y2="100%" x2="50%" y1="0%" x1="50%">
            <stop offset="0%" stop-color="#FFF29D"></stop>
            <stop offset="100%" stop-color="#F9AB21"></stop>
        </linearGradient>
        <linearGradient id="linearGradient-10" y2="100%" x2="50%" y1="0%" x1="50%">
            <stop offset="0%" stop-color="#FFF29D"></stop>
            <stop offset="100%" stop-color="#F9AB21"></stop>
        </linearGradient>
        <linearGradient id="linearGradient-11" y2="100%" x2="50%" y1="0%" x1="50%">
            <stop offset="0%" stop-color="#FFF29D"></stop>
            <stop offset="100%" stop-color="#F9AB21"></stop>
        </linearGradient>
        <linearGradient id="linearGradient-12" y2="100%" x2="50%" y1="0%" x1="50%">
            <stop offset="0%" stop-color="#FFF29D"></stop>
            <stop offset="100%" stop-color="#F9AB21"></stop>
        </linearGradient>
        <linearGradient id="linearGradient-13" y2="100%" x2="50%" y1="0%" x1="50%">
            <stop offset="0%" stop-color="#FFF29D"></stop>
            <stop offset="100%" stop-color="#F9AB21"></stop>
        </linearGradient>
        <linearGradient id="linearGradient-14" y2="100%" x2="50%" y1="0%" x1="50%">
            <stop offset="0%" stop-color="#FFF29D"></stop>
            <stop offset="100%" stop-color="#F9AB21"></stop>
        </linearGradient>
        <linearGradient id="linearGradient-15" y2="100%" x2="50%" y1="0%" x1="50%">
            <stop offset="0%" stop-color="#FFF29D"></stop>
            <stop offset="100%" stop-color="#F9AB21"></stop>
        </linearGradient>
        <linearGradient id="linearGradient-16" y2="100%" x2="50%" y1="0%" x1="50%">
            <stop offset="0%" stop-color="#FFF29D"></stop>
            <stop offset="100%" stop-color="#F9AB21"></stop>
        </linearGradient>
        <linearGradient id="linearGradient-17" y2="100%" x2="50%" y1="0%" x1="50%">
            <stop offset="0%" stop-color="#FFF29D"></stop>
            <stop offset="100%" stop-color="#F9AB21"></stop>
        </linearGradient>
        <linearGradient id="linearGradient-18" y2="100%" x2="50%" y1="0%" x1="50%">
            <stop offset="0%" stop-color="#FFF29D"></stop>
            <stop offset="100%" stop-color="#F9AB21"></stop>
        </linearGradient>
        <linearGradient id="linearGradient-19" y2="100%" x2="50%" y1="0%" x1="50%">
            <stop offset="0%" stop-color="#FFF29D"></stop>
            <stop offset="100%" stop-color="#F9AB21"></stop>
        </linearGradient>
        <linearGradient id="linearGradient-20" y2="100%" x2="50%" y1="0%" x1="50%">
            <stop offset="0%" stop-color="#FFF29D"></stop>
            <stop offset="100%" stop-color="#F9AB21"></stop>
        </linearGradient>
        <linearGradient id="linearGradient-21" y2="100%" x2="50%" y1="0%" x1="50%">
            <stop offset="0%" stop-color="#FFF29D"></stop>
            <stop offset="100%" stop-color="#F9AB21"></stop>
        </linearGradient>
        <linearGradient id="linearGradient-22" y2="100%" x2="50%" y1="-19.0038784%" x1="50%">
            <stop offset="0%" stop-color="#FFCDA5"></stop>
            <stop offset="100%" stop-color="#FFE8D1"></stop>
        </linearGradient>
        <linearGradient id="linearGradient-23" y2="100%" x2="50%" y1="0%" x1="50%">
            <stop offset="0%" stop-color="#FFF2DF"></stop>
            <stop offset="100%" stop-color="#FEE0BC"></stop>
        </linearGradient>
        <linearGradient id="linearGradient-24" y2="100%" x2="63.6424015%" y1="23.4458427%" x1="21.875%">
            <stop offset="0%" stop-color="#FFF2DF"></stop>
            <stop offset="100%" stop-color="#FEE0BC"></stop>
        </linearGradient>
        <linearGradient id="linearGradient-25" y2="100%" x2="50%" y1="0%" x1="50%">
            <stop offset="0%" stop-color="#FFF2DF"></stop>
            <stop offset="100%" stop-color="#FEE0BC"></stop>
        </linearGradient>
        <linearGradient id="linearGradient-26" y2="100%" x2="50%" y1="0%" x1="50%">
            <stop offset="0%" stop-color="#FEE127"></stop>
            <stop offset="100%" stop-color="#F9AB21"></stop>
        </linearGradient>
        <linearGradient id="linearGradient-27" y2="55.5555556%" x2="100%" y1="44.4444444%" x1="-7.15035485%">
            <stop offset="0%" stop-color="#BFD4FA"></stop>
            <stop offset="100%" stop-color="#5792F0"></stop>
        </linearGradient>
        <linearGradient id="linearGradient-28" y2="100%" x2="50%" y1="0%" x1="50%">
            <stop offset="0%" stop-color="#FFF2DF"></stop>
            <stop offset="100%" stop-color="#FEE0BC"></stop>
        </linearGradient>
        <linearGradient id="linearGradient-29" y2="100%" x2="50%" y1="0%" x1="50%">
            <stop offset="0%" stop-color="#FFF29D"></stop>
            <stop offset="100%" stop-color="#F9AB21"></stop>
        </linearGradient>
        <linearGradient id="linearGradient-30" y2="100%" x2="50%" y1="0%" x1="50%">
            <stop offset="0%" stop-color="#FFF29D"></stop>
            <stop offset="100%" stop-color="#F9AB21"></stop>
        </linearGradient>
        <linearGradient id="linearGradient-31" y2="100%" x2="50%" y1="0%" x1="50%">
            <stop offset="0%" stop-color="#FFF29D"></stop>
            <stop offset="100%" stop-color="#F9AB21"></stop>
        </linearGradient>
        <linearGradient id="linearGradient-32" y2="85.0581451%" x2="0%" y1="38.4579711%" x1="89.4431057%">
            <stop offset="0%" stop-color="#F9AB21"></stop>
            <stop offset="100%" stop-opacity="0" stop-color="#FEE127"></stop>
        </linearGradient>
        <linearGradient id="linearGradient-33" y2="100%" x2="50%" y1="0%" x1="50%">
            <stop offset="0%" stop-color="#FFF29D"></stop>
            <stop offset="100%" stop-color="#F9AB21"></stop>
        </linearGradient>
        <linearGradient id="linearGradient-34" y2="66.3046487%" x2="0%" y1="44.6320969%" x1="89.4431057%">
            <stop offset="0%" stop-color="#F9AB21"></stop>
            <stop offset="100%" stop-opacity="0" stop-color="#FEE127"></stop>
        </linearGradient>
        <linearGradient id="linearGradient-35" y2="55.4410251%" x2="0%" y1="48.2086768%" x1="89.4431057%">
            <stop offset="0%" stop-color="#F9AB21"></stop>
            <stop offset="100%" stop-opacity="0" stop-color="#FEE127"></stop>
        </linearGradient>
        <linearGradient id="linearGradient-36" y2="100%" x2="50%" y1="0%" x1="50%">
            <stop offset="0%" stop-color="#FFF29D"></stop>
            <stop offset="100%" stop-color="#F9AB21"></stop>
        </linearGradient>
        <linearGradient id="linearGradient-37" y2="100%" x2="50%" y1="0%" x1="50%">
            <stop offset="0%" stop-color="#FFF29D"></stop>
            <stop offset="100%" stop-color="#F9AB21"></stop>
        </linearGradient>
        <linearGradient id="linearGradient-38" y2="100%" x2="50%" y1="0%" x1="50%">
            <stop offset="0%" stop-color="#FFF29D"></stop>
            <stop offset="100%" stop-color="#F9AB21"></stop>
        </linearGradient>
    </defs>
    <g fill-rule="evenodd" fill="none" stroke-width="1" stroke="none" id="购物车空空如也">
        <rect height="1024" width="1024" y="0" x="0" id="矩形"></rect>
        <g transform="translate(32.000000, 130.000000)" id="编组-2">
            <path opacity="0.100000001" fill="url(#linearGradient-1)" id="路径-58" d="M18.686798,494.92221 C10.5274289,459.728997 -42.5854858,230.542416 107.587064,199.030218 C257.759613,167.518021 346.476484,204.220394 412.460543,140.053889 C478.444601,75.8873838 494.89989,86.4189602 549.096992,90.6628904 C603.294094,94.9068206 666.107761,48.589005 687.214617,34.6761722 C708.321473,20.7633395 898.891455,-68.7509079 947.612746,199.030218 C955.312864,314.802363 961.711892,440.402035 907.801502,487.978659 C853.891111,535.555284 908.786375,578.275218 947.612746,583.022287 C986.439118,587.769356 929.461174,669.061227 839.784843,704.552833 C780.160156,731.301534 394.48112,807.997551 163.517868,729.158719 C51.9899768,681.395603 26.8461671,530.115422 18.686798,494.92221 Z"></path>
            <path fill="url(#linearGradient-2)" id="路径" d="M855.791216,50.2680236 C855.791216,61.1958548 845.558082,69.9381198 832.632019,69.9381198 L761.000085,69.9381198 C748.074022,69.0638933 737.302303,60.7587416 737.302303,49.3937971 C737.302303,41.9628719 742.149576,35.4061731 749.151194,31.9092672 C748.612608,30.5979274 748.074022,29.2865877 748.074022,27.9752479 C748.074022,20.5443227 755.07564,13.987624 764.231601,13.987624 C768.001703,13.987624 771.233219,15.2989637 773.926149,17.0474167 C780.38918,6.99381198 792.238071,0 806.241307,0 C825.630401,0 841.249394,13.5505107 841.249394,30.1608142 L841.249394,31.9092672 C849.86677,34.9690599 855.791216,41.9628719 855.791216,50.2680236 Z"></path>
            <path fill="url(#linearGradient-3)" id="路径" d="M244.054511,220.742191 C244.054511,235.120916 229.431086,246.623896 210.959391,246.623896 L108.595415,246.623896 C90.1237207,245.473598 74.7306417,234.545767 74.7306417,219.591893 C74.7306417,209.814359 81.6575272,201.187124 91.6630286,196.585932 C90.8933746,194.860485 90.1237207,193.135038 90.1237207,191.409591 C90.1237207,181.632058 100.129222,173.004823 113.213339,173.004823 C118.600917,173.004823 123.218841,174.73027 127.06711,177.030866 C136.302958,163.802438 153.235345,154.600054 173.246347,154.600054 C200.953889,154.600054 223.273854,172.429674 223.273854,194.285336 L223.273854,196.585932 C235.588317,200.611975 244.054511,209.814359 244.054511,220.742191 Z"></path>
            <g transform="translate(718.897534, 579.750203)" id="草">
                <path fill="url(#linearGradient-4)" id="路径-43" d="M61.9954109,92.0238418 C59.6319212,81.0361273 52.7296798,73.3553251 41.2886867,68.9814352 C28.2234903,64.6920883 21.0654244,59.593466 29.240959,55.8964921 C36.1447506,55.3360067 50.8681232,49.8448104 61.9954109,82.6443016 C62.769813,85.8227395 62.769813,88.9492529 61.9954109,92.0238418 Z"></path>
                <path fill="url(#linearGradient-5)" id="路径-44" d="M62.0166573,92.0238418 C54.9434866,66.1911288 46.9083659,47.330956 37.9112951,35.4433235 C31.3049884,27.3197674 31.767902,15.6955679 37.9112951,13.0681905 C44.1997021,12.3839765 55.7894322,11.3257175 64.5159636,55.8461018 C65.0671135,58.9083898 68.142032,76.8234074 64.5159636,88.3852529 C63.9792496,89.9720221 63.1461475,91.1848851 62.0166573,92.0238418 Z"></path>
                <path fill="url(#linearGradient-6)" id="路径-45" d="M65.0707995,85.9407317 C68.3347616,74.3867697 67.9203662,59.3115119 63.8276134,40.7149583 C57.5673372,22.6872612 46.8817578,0.51122293 66.3582054,0 C74.2598914,1.02995248 83.801383,8.9690422 80.1961057,48.5365453 C77.9990923,64.5028235 74.1780788,73.9348689 70.1680488,85.9407317 C68.7692065,86.6893414 67.0701234,86.6893414 65.0707995,85.9407317 Z"></path>
                <path fill="url(#linearGradient-7)" id="路径-46" d="M68.2592888,92.0238418 C67.0147504,59.0950936 72.9566423,35.4635398 86.0849646,21.1291805 C89.6301552,16.3392088 103.117619,11.8530642 103.066703,26.8684179 C101.658664,33.3249254 98.6457605,47.1087623 81.2721122,68.1388389 C75.5484791,75.7292028 71.7867677,86.8208344 71.7501021,89.4214108 C71.7256584,91.1551284 70.5620539,92.0226054 68.2592888,92.0238418 Z"></path>
                <path fill="url(#linearGradient-8)" id="路径-47" d="M0,95.6181481 C13.1838212,93.1951393 20.4545192,91.1382094 21.8120942,89.4473582 C23.8484565,86.9110815 41.7878826,76.0211672 52.9748349,85.1938953 C55.4100564,82.1078143 63.2200492,79.7072337 67.6895405,85.1938953 C69.7343595,76.5316176 82.4908177,70.9840109 88.0387322,71.8827449 C94.2865539,71.4006079 112.731063,71.601206 114.109564,95.6181481 C109.077181,95.733678 71.04066,95.733678 0,95.6181481 Z"></path>
            </g>
            <g transform="translate(140.987808, 609.197833)" id="草">
                <ellipse ry="3.68095367" rx="11.7790518" cy="71.7785966" cx="24.6623896" fill="#BE841D" id="椭圆形"></ellipse>
                <path fill="url(#linearGradient-9)" id="路径-42" d="M12.156072,70.3370152 C13.7600687,43.5514334 20.4797241,28.0480866 32.3150383,23.8269751 C36.9746123,23.204873 42.1677881,22.2694975 38.5467654,28.3081857 C34.9257426,34.3468739 25.229308,31.9968207 15.5331948,70.3210492 C14.6562046,71.9596008 13.530497,71.9649228 12.156072,70.3370152 Z"></path>
                <path fill="url(#linearGradient-10)" id="路径-41" d="M11.9348052,70.0014355 C8.78592409,44.9831787 6.208671,29.2496872 4.20304593,22.8009611 C1.19460833,13.127872 -5.21091654,-5.4882734 8.12054823,1.55468728 C21.452013,8.59764796 23.0282007,44.7246268 16.8658399,66.7108414 C14.9504488,72.2743444 13.3067706,73.3712091 11.9348052,70.0014355 Z"></path>
            </g>
            <g transform="translate(498.854550, 534.838190) rotate(1.000000) translate(-498.854550, -534.838190) translate(188.797353, 248.199836)" id="购物车">
                <circle r="26.6869141" cy="442.745084" cx="320.251098" fill-rule="nonzero" fill="#FBC54E" id="椭圆形备份-3"></circle>
                <circle r="26.6869141" cy="497.56971" cx="26.6869141" fill-rule="nonzero" fill="#F9AD25" id="椭圆形备份-4"></circle>
                <polygon points="150.419151 456.91127 325.665825 483.532421 351.031127 476.686411 176.411657 450.403838" fill="url(#linearGradient-11)" id="路径-36"></polygon>
                <polygon points="245.788163 436.839026 421.034837 463.460176 446.400138 456.614166 271.780669 430.331593" fill="url(#linearGradient-11)" id="路径-36备份-3"></polygon>
                <polygon points="51.4018675 475.114316 226.648541 509.190057 252.013843 502.441552 77.3943733 468.699566" fill="url(#linearGradient-12)" id="路径-36备份-2"></polygon>
                <polygon points="339.059825 423.310851 510.435666 438.18813 505.943131 426.328238 335.590366 410.580977" fill="url(#linearGradient-13)" id="路径-36备份"></polygon>
                <polygon points="194.145644 344.468872 154.650203 444.257811 167.069096 441.98732 206.183555 343.031585" fill="url(#linearGradient-14)" id="路径-30"></polygon>
                <polygon points="379.051953 327.586906 337.070425 481.550184 349.247296 478.608685 390.444253 326.95013" fill="url(#linearGradient-15)" id="路径-27"></polygon>
                <polygon points="302.94905 334.180002 323.198774 413.03956 22.3607164 471.989484 35.3722214 481.065386 338.922732 423.775087 314.852349 331.986762" fill="url(#linearGradient-16)" id="路径-31"></polygon>
                <polygon points="458.648109 318.444855 508.404307 436.286995 166.229809 521.606171 186.108099 529.688866 528.803746 445.651233 473.535643 316.193553" fill="url(#linearGradient-17)" id="路径-32"></polygon>
                <circle r="26.6869141" cy="546.589794" cx="171.121624" fill-rule="nonzero" fill="#F9AD25" id="椭圆形备份-5"></circle>
                <circle r="26.6869141" cy="461.551126" cx="508.336592" fill-rule="nonzero" fill="#FBC751" id="椭圆形备份-2"></circle>
                <path fill="url(#linearGradient-18)" id="路径-37" d="M545.700258,89.5027416 L566.011574,62.9241603 L614.293632,55.7798711 C622.823455,48.0933632 621.97849,42.1565362 611.758736,37.9693902 C597.508693,39.9646042 578.682823,42.7760967 555.281129,46.4038677 L526.250075,84.8220249 L545.700258,89.5027416 Z"></path>
                <path fill="url(#linearGradient-18)" id="路径-37备份-2" d="M384.992866,57.3335129 L405.304182,30.7549316 L453.586241,23.6106424 C462.116063,15.9241345 461.271098,9.98730754 451.051345,5.80016153 C436.801301,7.7953755 417.975432,10.606868 394.573737,14.234639 L365.542684,52.6527962 L384.992866,57.3335129 Z"></path>
                <polygon points="3.63646678 157.786143 368.05088 48.4276243 367.934854 246.468358 31.5124269 306.094381" fill="url(#linearGradient-19)" id="路径-34"></polygon>
                <g transform="translate(99.915498, 0.000000)" id="人物">
                    <ellipse ry="30.036582" rx="93.8643187" cy="219.837641" cx="93.8643187" fill="#FEE3B1" id="椭圆形"></ellipse>
                    <g transform="translate(174.845299, 186.095566)" id="草">
                        <ellipse ry="2.76071525" rx="7.36190735" cy="45.0916825" cx="14.7238147" fill="#BE841D" id="椭圆形"></ellipse>
                        <path fill="url(#linearGradient-20)" id="路径-42" d="M7.36190735,45.2216937 C8.43133965,27.8284923 12.9115339,17.7614035 20.8024901,15.0204273 C23.9091668,14.6164657 27.3716117,14.0090802 24.9573681,17.9302987 C22.5431244,21.8515172 16.0782228,20.3255116 9.6135356,45.2113262 C9.02882014,46.2753187 8.27827739,46.2787745 7.36190735,45.2216937 Z"></path>
                        <path fill="url(#linearGradient-21)" id="路径-41" d="M7.56491102,44.7918803 C5.56898355,28.7834263 3.93538418,18.7160232 2.66411289,14.5896711 C0.757205968,8.40014304 -3.30295461,-3.51178635 5.14723312,0.994799121 C13.5974209,5.50138459 14.596492,28.6179864 10.6904617,42.686325 C9.47638546,46.2462486 8.43453525,46.9481003 7.56491102,44.7918803 Z"></path>
                    </g>
                    <path fill="#FEE0BC" id="胳膊-path" d="M22.3796505,126.215971 L10.6904895,146.843264 C10.6904895,146.843264 9.58853432,148.705005 9.88379504,150.482628 C10.1948733,152.342783 11.8978949,153.718323 11.8978949,153.718323 L46.7182985,173.21422 L46.9601053,156.145095 L32.049439,147.247462 L42.9319055,130.665316 L22.3796505,126.215971 Z"></path>
                    <path fill="#FEE0BC" id="胳膊-path" d="M166.614511,126.215971 L178.287855,146.843264 C178.287855,146.843264 179.384538,148.705005 179.089277,150.482628 C178.783471,152.342783 177.080449,153.718323 177.080449,153.718323 L142.413512,174.134505 L142.065692,156.145095 L156.955268,147.247462 L146.088619,130.665316 L166.614511,126.215971 Z"></path>
                    <g transform="translate(57.054782, 0.000000)" id="脑袋">
                        <rect height="19.6317529" width="19.6317529" y="67.6915561" x="24.6938699" fill="url(#linearGradient-22)" id="矩形"></rect>
                        <g id="编组">
                            <ellipse ry="26.2050805" rx="28.0123274" cy="46.7589412" cx="35.0149519" fill="url(#linearGradient-23)" id="椭圆形"></ellipse>
                            <ellipse ry="6.50608895" rx="4.87956671" cy="48.0240141" cx="63.5694534" fill="url(#linearGradient-24)" id="椭圆形"></ellipse>
                            <ellipse ry="6.50608895" rx="4.87956671" cy="51.6385079" cx="5.73755168" transform="translate(5.737552, 51.638508) rotate(-8.000000) translate(-5.737552, -51.638508)" fill="url(#linearGradient-25)" id="椭圆形备份"></ellipse>
                            <path fill="#483029" id="路径-67" d="M9.500041,52.4535898 C5.62581883,50.4940954 2.82792806,46.4138645 1.1063687,40.2128972 C-1.51808264,25.3642444 5.76904073,11.3869461 10.6426586,8.58309407 C15.5162764,5.779242 18.3046896,4.22785993 20.8825063,5.68591505 C22.968116,2.54577815 33.5281476,-3.20677165 49.7684596,2.2726954 C66.0087717,7.75216244 70.7286543,24.0345662 69.8340172,32.2879704 C69.2375925,37.7902398 66.9193728,43.5769208 62.8793581,49.6480136 L62.8793581,41.4091472 C61.9494213,45.6814691 60.7495585,48.4277579 59.2797696,49.6480136 C59.9313279,46.4288916 60.1380892,42.4938717 59.4147068,40.6953073 C58.6913243,38.8967428 58.6501595,42.7970322 57.6201868,45.6630649 C53.5002871,40.0588528 48.1064953,36.0811706 41.4388112,33.7300184 L40.70636,35.3937538 C34.5092815,29.2288206 30.5566555,25.5455499 28.8484819,24.3439418 C26.2862216,22.5415297 24.5838425,22.7244748 23.9488397,25.0902664 C23.1017398,24.5416169 20.9477897,22.7918539 19.8435286,25.8501405 C18.12257,29.6962488 15.5346583,34.8038227 14.662615,45.3847085 C12.9145568,42.3589231 11.6504752,45.7037071 12.1604655,50.2254475 C11.4727959,50.117314 10.7844053,49.9037038 10.0952936,49.5846168 L9.500041,52.4535898 Z"></path>
                        </g>
                    </g>
                    <path fill="url(#linearGradient-26)" id="衣服" d="M82.1861443,75.5476876 C83.905931,76.5565371 87.1318863,79.4067628 91.8640104,84.0983647 C97.7811935,78.3979133 100.739785,75.5476876 100.739785,75.5476876 L125.340773,79.5954693 C125.340773,79.5954693 131.103167,80.5622776 134.617593,84.0472351 C144.32712,93.6745492 160.432273,112.380649 160.432273,112.380649 L171.724875,124.929037 C168.912487,128.322121 165.655188,131.317524 162.041732,133.833627 C156.374323,137.725746 148.733347,140.716709 148.733347,140.716709 L139.862849,132.216633 L139.862849,191.713995 L49.5167502,191.713995 L49.5167502,131.404429 L44.2714945,137.883527 C44.2714945,137.883527 36.5038724,136.363954 29.7494184,133.02619 C25.2613968,130.699947 21.0649388,127.846562 17.2484017,124.526112 L43.8704487,91.7404032 C45.5257524,90.0249737 47.275129,88.4035191 49.1104275,86.8835944 C50.7779025,85.5560116 52.5300538,84.339173 54.3556832,83.2408555 C56.5833894,82.2771263 58.8735232,81.4657173 61.2103986,80.8121866 C69.4371125,78.5365336 82.1861443,75.5476876 82.1861443,75.5476876 Z"></path>
                    <path fill-rule="nonzero" fill="url(#linearGradient-27)" id="裤子" d="M148.345464,169.10401 C148.345464,169.10401 170.434371,159.900819 176.847793,179.96979 C182.502638,197.677674 163.607179,201.395922 163.607179,201.395922 L163.607179,201.395922 L149.320843,204.032567 L143.099082,223.845102 L92.5736016,214.509779 L42.0067883,223.845102 L35.7769278,204.016502 L21.6419188,201.406014 C21.6419188,201.406014 2.76767934,197.687767 8.41721982,179.989444 C14.8253371,159.929502 36.887721,169.128445 36.887721,169.128445 L92.5488853,183.988936 L148.345464,169.10401 Z"></path>
                    <path fill="url(#linearGradient-28)" id="脚" d="M37.1860181,209.01536 L31.1005992,209.411151 C29.2097007,209.511531 27.3146026,209.511531 25.4237042,209.411151 C21.524155,209.248696 17.9057977,209.243005 17.9057977,209.243005 C17.9057977,209.243005 10.6478611,208.979144 9.14109648,211.053815 C6.24428845,215.045872 7.75635857,223.160367 7.75635857,223.160367 C7.75635857,223.160367 8.66890615,226.518641 10.3931967,228.032995 C11.8469062,229.31453 14.5155773,228.352733 14.5155773,228.352733 C14.5155773,228.352733 19.3170632,227.098617 24.4368796,226.009546 C31.3764856,224.535029 34.3475708,224.043524 34.3475708,224.043524 L41.6479514,222.065603 L37.1860181,209.01536 Z M147.917301,209.01536 L154.034553,209.412703 C155.936053,209.51368 157.84178,209.51368 159.743282,209.412703 C163.664053,209.249731 167.303632,209.24404 167.303632,209.24404 C167.303632,209.24404 174.598707,208.979144 176.116082,211.063126 C179.028807,215.072776 177.506126,223.225038 177.506126,223.225038 C177.506126,223.225038 176.588272,226.5978 174.858677,228.119397 C173.394356,229.406106 170.715074,228.440685 170.715074,228.440685 C170.715074,228.440685 165.887061,227.180362 160.735411,226.086634 C153.758666,224.605909 150.771665,224.111301 150.771665,224.111301 L143.428841,222.125101 L147.917301,209.01536 Z"></path>
                    <path fill="#483029" id="电脑" d="M49.2674541,100.157997 L137.622596,100.157997 C140.329791,100.157997 142.524408,102.200694 142.524408,104.720489 L142.524408,168.869132 L44.3656431,168.869132 L44.3656431,104.720489 C44.3656431,102.200694 46.5602586,100.157997 49.2674541,100.157997 Z M45.7168086,168.869132 L141.173241,168.869132 C142.532686,168.869132 143.788863,169.720951 144.468586,171.103718 C145.148307,172.486484 145.148307,174.190123 144.468586,175.572889 C143.788863,176.955656 142.532686,177.807475 141.173241,177.807475 L45.7168086,177.807475 C43.6152908,177.807475 41.911674,175.806559 41.911674,173.338304 C41.911674,170.870048 43.6152908,168.869132 45.7168086,168.869132 L45.7168086,168.869132 Z"></path>
                </g>
                <polygon points="366.906972 47.4013464 366.346002 247.446277 464.257336 317.951441 544.872255 88.4254794" fill="url(#linearGradient-29)" id="路径-35"></polygon>
                <polygon points="4.93881637 155.331138 21.4890333 311.18518 139.293625 350.421683 139.293625 182.202525" fill="url(#linearGradient-30)" id="路径-28"></polygon>
                <polygon points="138.754548 181.9843 545.499929 88.0375205 483.38808 317.280034 138.754548 351.225708" fill="url(#linearGradient-31)" id="路径-29"></polygon>
            </g>
            <g transform="translate(0.000000, 182.147514)" id="落叶">
                <path transform="translate(123.043458, 217.095950) rotate(-23.000000) translate(-123.043458, -217.095950)" stroke-linecap="round" stroke-width="2" stroke="url(#linearGradient-32)" id="路径-20" d="M204.944677,234.352877 C142.234783,239.982576 93.3588805,232.499054 58.3169687,211.902308 C30.5949034,194.87115 38.975856,160.961406 65.353278,160.961406 C91.7307,160.961406 107.728453,177.684484 107.728453,203.666529 C107.728453,229.648575 90.4977546,259.876143 65.353278,273.230493"></path>
                <path transform="translate(30.852812, 341.933646) rotate(-14.000000) translate(-30.852812, -341.933646)" fill="url(#linearGradient-33)" id="路径-18" d="M58.7044022,334.890185 C49.6472841,323.180813 38.4574977,323.180813 25.1350429,334.890185 C18.0891777,341.494451 13.4421357,352.056185 3.00122116,352.056185 C35.7441945,363.471604 54.3119215,357.749605 58.7044022,334.890185 Z"></path>
                <path transform="translate(49.760953, 331.019227) rotate(-14.000000) translate(-49.760953, -331.019227)" stroke-linecap="round" stroke-width="2" stroke="url(#linearGradient-34)" id="路径-19" d="M70.7478792,321.209658 C67.3906674,327.74937 53.3993834,334.289083 28.7740273,340.828795"></path>
                <path transform="translate(489.601635, 66.782204) rotate(-10.000000) translate(-489.601635, -66.782204)" fill="url(#linearGradient-33)" id="路径-18备份" d="M517.453225,59.7387433 C508.396107,48.0293715 497.206321,48.0293715 483.883866,59.7387433 C476.838001,66.3430094 472.190959,76.9047429 461.750044,76.9047429 C494.493017,88.3201627 513.060744,82.5981628 517.453225,59.7387433 Z"></path>
                <path transform="translate(509.225068, 57.213337) rotate(-10.000000) translate(-509.225068, -57.213337)" stroke-linecap="round" stroke-width="2" stroke="url(#linearGradient-34)" id="路径-19备份" d="M530.211994,47.4037683 C526.854782,53.9434808 512.863498,60.4831933 488.238142,67.0229058"></path>
                <path transform="translate(500.369119, 16.705313) rotate(-12.000000) translate(-500.369119, -16.705313)" stroke-linecap="round" stroke-width="2" stroke="url(#linearGradient-35)" id="路径-22" d="M535.759864,7.14932845 C507.386374,19.890641 483.792544,26.2612973 464.978374,26.2612973"></path>
            </g>
            <g transform="translate(563.320794, 52.361034)" id="大雁">
                <path fill="url(#linearGradient-36)" id="路径" d="M37.3161068,64.5432959 L37.3161068,64.4464248 C32.007095,49.4547817 14.6903478,42.3998908 0,44.5778211 C10.892843,37.8035225 28.8747781,35.9997151 37.3192297,46.3849688 L37.3192297,46.4751592 C45.7511896,36.1800959 63.8299361,37.8970532 74.6384594,44.6680115 C59.9606034,42.5902927 42.6407333,49.6351624 37.3192297,64.5366152 L37.3161068,64.5432959 Z"></path>
                <path fill="url(#linearGradient-37)" id="路径" d="M120.488671,52.0409384 L120.488671,51.9774711 C116.800469,41.5855366 104.805225,36.7052357 94.6212917,38.2050681 C102.169457,33.5118286 114.636266,32.2591847 120.488671,39.4577121 L120.488671,39.5211794 C126.341075,32.3861193 138.864097,33.5752959 146.35605,38.2685354 C136.172116,36.8288299 124.183118,41.7124712 120.488671,52.0409384 L120.488671,52.0409384 Z"></path>
                <path fill="url(#linearGradient-37)" id="路径" d="M85.8033215,17.6689609 L85.8033215,17.6054936 C82.1151198,7.21355912 70.1198762,2.33325818 59.9359425,3.83309057 C67.484108,-0.860148865 79.9509168,-2.11279284 85.8033215,5.08573455 L85.8033215,5.14920185 C91.6557263,-1.98585825 104.178748,-0.79668157 111.670701,3.89655787 C101.486767,2.45685239 89.4977691,7.34049371 85.8033215,17.6689609 L85.8033215,17.6689609 Z"></path>
                <path fill="url(#linearGradient-38)" id="路径" d="M190.959882,57.9827819 L190.959882,57.9393569 C188.405311,50.7374891 180.085777,47.3503398 173.027914,48.3925396 C178.261975,45.1390056 186.903173,44.2705058 190.959882,49.2610394 L190.959882,49.3044644 C195.019715,44.3573558 203.698387,45.1824306 208.89185,48.4359646 C201.833987,47.4338494 193.514454,50.8243391 190.959882,57.9827819 Z"></path>
            </g>
        </g>
    </g>
</svg>